mtllib materials3.mtl
v -0.03272241 0.08055723 -0.05658458
v -0.03046179 0.09260905 -0.05901213
v -0.0387654 0.09592605 -0.05027728
v -0.04102603 0.08387423 -0.04784973
v 0.05793604 0.08088613 0.02947326
v 0.0496324 0.08420312 0.03820811
v 0.05189303 0.09625494 0.03578056
v 0.06019667 0.09293795 0.02704571
v -0.06437117 -0.0881685 -0.02259883
v -0.03046179 0.09260893 -0.05901209
v -0.03876543 0.09592593 -0.05027724
v -0.07267478 -0.0848515 -0.01386398
v -0.0553053 -0.0881356 -0.01399305
v -0.06360894 -0.0848186 -0.005258195
v -0.02969956 0.09595883 -0.04167145
v -0.02139595 0.09264183 -0.05040631
v -0.0643712 -0.08816838 -0.02259879
v -0.06211057 -0.07611656 -0.02502634
v -0.07041419 -0.07279956 -0.01629148
v -0.07267481 -0.08485138 -0.01386394
v 0.02628726 -0.08783948 0.06345905
v 0.01798365 -0.08452249 0.07219391
v 0.02024427 -0.07247066 0.06976636
v 0.02854788 -0.07578766 0.06103151
v 0.01722145 -0.08787251 0.05485328
v 0.05113086 0.09290493 0.01844002
v 0.04282722 0.09622192 0.02717486
v 0.008917809 -0.08455551 0.06358813
v 0.02628729 -0.0878396 0.06345907
v 0.01798368 -0.0845226 0.07219391
v 0.05189309 0.09625483 0.03578065
v 0.06019667 0.09293783 0.0270458
v -0.06437111 -0.0881685 -0.02259879
v -0.03046176 0.09260893 -0.05901202
v 0.06019667 0.09293795 0.0270458
v 0.02628732 -0.08783948 0.06345902
v -0.04889286 -0.07774222 -0.02078801
v 0.02363393 -0.07747912 0.0480583
v 0.05415234 0.08522069 0.01528639
v -0.01837444 0.08495748 -0.05355991
v -0.05719644 -0.0744251 -0.01205309
v -0.02780834 0.08224869 -0.04361123
v 0.04471841 0.08251178 0.02523503
v 0.01533028 -0.07416201 0.05679315
v -0.05304465 -0.07608366 -0.01642053
v 0.01948211 -0.07582045 0.05242574
v 0.04887018 0.08085334 0.0208676
v -0.02365652 0.08059013 -0.04797866
v 0.05885217 -0.08745301 -0.05125565
v 0.01415071 0.04499769 0.003137678
v -0.0005915165 0.04556763 -0.01036577
v 0.04410997 -0.08688307 -0.06475909
v 0.04980692 -0.08330798 -0.04120564
v 0.03506473 -0.08273792 -0.05470908
v -0.003676534 0.03205252 -0.007568233
v 0.01106566 0.03148258 0.005935207
vn -0.7252674 -0.002631743 -0.6884623
vn 0.7252674 0.002631743 0.6884623
vn 0.6642898 -0.2653579 -0.6987877
vn -0.6642898 0.2653579 0.6987877
vn -0.18085 -0.9641464 0.194204
vn 0.18085 0.9641464 -0.194204
vn -0.7252674 -0.002631867 -0.6884623
vn 0.7252674 0.002631867 0.6884623
vn 0.6642897 -0.2653579 -0.6987879
vn -0.6642897 0.2653579 0.6987879
vn -0.1808497 -0.9641463 0.1942042
vn 0.1808497 0.9641463 -0.1942042
vn -0.7252674 -0.002631743 -0.6884623
vn 0.7252674 0.002631743 0.6884623
vn 0.6642898 -0.2653579 -0.6987877
vn -0.6642898 0.2653579 0.6987877
vn -0.18085 -0.9641464 0.194204
vn 0.18085 0.9641464 -0.194204
vn -0.7252673 -0.002631777 -0.6884624
vn 0.7252673 0.002631777 0.6884624
vn 0.6642898 -0.2653579 -0.6987877
vn -0.6642898 0.2653579 0.6987877
vn -0.1808498 -0.9641464 0.1942042
vn 0.1808498 0.9641464 -0.1942042
vn -0.6642898 0.265358 0.6987877
vn 0.6642898 -0.265358 -0.6987877
vn 0.2698083 -0.2385203 -0.932905
vn 0.9185086 -0.2361662 -0.3171238
vn 0.5132804 -0.6685227 -0.5381642
vn 0.5976042 0.4941173 -0.6314407
vn -0.6642898 0.265358 0.6987877
vn 0.6642898 -0.265358 -0.6987877
vn -0.725268 -0.002631604 -0.6884617
vn 0.7252664 0.002632237 0.6884633
vn -0.1808499 -0.9641464 0.1942039
vn 0.1808502 0.9641463 -0.1942043
vn 0.6065142 0.4684999 -0.6423772
vn -0.6065145 -0.4684999 0.642377
vn 0.7371088 -0.02850159 0.6751729
vn -0.73711 0.02850061 -0.6751717
vn -0.2181478 -0.9556565 0.1978187
vn -0.6395957 0.2930956 0.7106422
vn 0.7371094 -0.02850098 0.6751722
vn -0.6395954 0.2930962 0.7106422
vn -0.2181473 -0.9556566 0.1978186
vt -0.1052425 0.08434559
vt -0.1061545 0.08520047
vt -0.1070094 0.08428851
vt -0.1060974 0.08343363
vt 0.1052425 0.08434559
vt 0.1060974 0.08343362
vt 0.1070094 0.0842885
vt 0.1061545 0.08520047
vt -0.04454281 0.1316101
vt -0.03409314 0.1384698
vt -0.03477911 0.1395147
vt -0.04522877 0.1326551
vt 0.04454281 0.1316101
vt 0.04522877 0.1326551
vt 0.03477911 0.1395147
vt 0.03409314 0.1384698
vt 0.03526888 0.009444891
vt 0.03592398 0.008380306
vt 0.04656984 0.01493132
vt 0.04591474 0.01599591
vt -0.03526888 0.009444891
vt -0.04591474 0.01599591
vt -0.04656984 0.01493132
vt -0.03592398 0.008380307
vt -0.09247501 0.07237723
vt -0.1061545 0.08520046
vt -0.1070093 0.08428849
vt -0.09332989 0.07146527
vt 0.09247501 0.07237723
vt 0.09332989 0.07146527
vt 0.1070093 0.08428849
vt 0.1061545 0.08520046
vt -0.03493933 0.1169806
vt -0.03389436 0.1176665
vt -0.04418383 0.133341
vt -0.04522879 0.1326551
vt 0.03493933 0.1169806
vt 0.0452288 0.1326551
vt 0.04418383 0.133341
vt 0.03389436 0.1176665
vt 0.03526891 0.009444935
vt 0.03592401 0.00838035
vt 0.0369886 0.009035451
vt 0.03633349 0.01010004
vt -0.03526891 0.009444941
vt -0.0363335 0.01010004
vt -0.0369886 0.009035457
vt -0.03592401 0.008380353
vt -0.09247503 0.07237723
vt -0.09338699 0.07323212
vt -0.09424187 0.07232016
vt -0.09332991 0.07146527
vt 0.09247502 0.07237723
vt 0.0933299 0.07146527
vt 0.09424186 0.07232015
vt 0.09338699 0.07323211
vt -0.0349393 0.1169806
vt -0.02448964 0.1238402
vt -0.0251756 0.1248852
vt -0.03562527 0.1180256
vt 0.0349393 0.1169806
vt 0.03562527 0.1180256
vt 0.0251756 0.1248852
vt 0.02448964 0.1238402
vt 0.03526888 0.009444887
vt 0.03592399 0.008380301
vt 0.04656985 0.01493132
vt 0.04591475 0.0159959
vt -0.03526888 0.009444887
vt -0.04591475 0.0159959
vt -0.04656985 0.01493132
vt -0.03592399 0.008380301
vt -0.09247501 0.07237722
vt -0.1061545 0.08520044
vt -0.1070094 0.08428849
vt -0.09332989 0.07146526
vt 0.09247501 0.07237722
vt 0.09332989 0.07146526
vt 0.1070094 0.08428849
vt 0.1061545 0.08520044
vt -0.02553459 0.1231543
vt -0.02448963 0.1238402
vt -0.03477909 0.1395147
vt -0.03582405 0.1388287
vt 0.0255346 0.1231543
vt 0.03582406 0.1388287
vt 0.03477909 0.1395147
vt 0.02448963 0.1238402
vt 0.04485018 0.01534084
vt 0.04550529 0.01427625
vt 0.04656987 0.01493135
vt 0.04591477 0.01599594
vt -0.04485019 0.01534084
vt -0.04591477 0.01599594
vt -0.04656988 0.01493136
vt -0.04550529 0.01427626
vt 0.0349393 0.1169806
vt 0.04522876 0.1326551
vt 0.0347791 0.1395147
vt 0.02448964 0.1238402
vt -0.0345803 0.1187115
vt -0.02622056 0.1241992
vt -0.03548108 0.1383063
vt -0.04384081 0.1328185
vt -0.06700748 0.09949861
vt -0.06696142 0.1013731
vt -0.07925913 0.1129287
vt -0.0806716 0.1123382
vt 0.03406291 0.1214218
vt 0.03201155 0.1400593
vt 0.03069077 0.1392851
vt 0.03253701 0.1225114
vt -0.01159219 0.1052593
vt -0.0003171442 0.110656
vt -0.002048002 0.1113769
vt -0.01106805 0.1070596
vt -0.1055916 0.02748313
vt -0.1047997 0.02879332
vt -0.1055171 0.03876756
vt -0.1064884 0.03995093
vt 0.0345803 0.1187115
vt 0.04349783 0.1322961
vt 0.0351381 0.1377838
vt 0.02622057 0.1241992
vt -0.0345803 0.1187115
vt -0.02622057 0.1241992
vt -0.03513811 0.1377838
vt -0.04349783 0.1322961
vt -0.09381444 0.07277614
vt -0.09338699 0.07323211
vt -0.1052425 0.08434558
vt -0.10567 0.0838896
vt 0.09381442 0.07277614
vt 0.10567 0.0838896
vt 0.1052425 0.08434558
vt 0.09338698 0.07323213
vt 0.03666103 0.009567723
vt 0.04517771 0.01480853
vt 0.04485016 0.01534083
vt 0.03633348 0.01010002
vt -0.03666106 0.009567671
vt -0.03633351 0.01009997
vt -0.04485019 0.01534077
vt -0.04517775 0.01480849
vt -0.08763589 0.04144743
vt -0.1026296 0.04188269
vt -0.1026876 0.03988353
vt -0.08769391 0.03944827
vt 0.08863547 0.04147642
vt 0.08869351 0.03947726
vt 0.101688 0.03985449
vt 0.10163 0.04185365
vt 0.08772308 0.08312263
vt 0.08873606 0.08213577
vt 0.101735 0.08230563
vt -0.08772308 0.08312254
vt -0.1027218 0.08331853
vt -0.101735 0.08230555
vt -0.08873607 0.08213569
vt 0.03361697 0.01593398
vt 0.03438354 0.01474554
vt 0.03606424 0.01582962
vt 0.03621199 0.1307164
vt 0.0379054 0.1296523
vt 0.03865785 0.1308497
vt 0.101735 0.08230559
vt 0.1027218 0.08331858
vt 0.08772308 0.08312257
vt 0.03865782 0.1308497
vt 0.0369644 0.1319139
vt 0.03621196 0.1307164
vt 0.03606424 0.01582967
vt 0.03529768 0.01701811
vt 0.03361697 0.01593403
o group682521855
g mesh682521855
usemtl mat20
f 52/148/37 51/147/37 50/146/37 49/145/37
f 56/152/38 55/151/38 54/150/38 53/149/38
f 56/155/39 53/154/39 49/153/39
f 54/159/40 55/158/40 51/157/40 52/156/40
f 53/162/41 54/161/41 52/160/41
f 51/165/42 55/164/42 56/163/42
f 49/168/43 50/167/43 56/166/43
f 56/171/44 50/170/44 51/169/44
f 52/174/45 49/173/45 53/172/45
o group431419969
g mesh431419969
usemtl mat20
f 4/4/1 3/3/1 2/2/1 1/1/1
f 8/8/2 7/7/2 6/6/2 5/5/2
f 2/12/3 8/11/3 5/10/3 1/9/3
f 6/16/4 7/15/4 3/14/4 4/13/4
f 5/20/5 6/19/5 4/18/5 1/17/5
f 3/24/6 7/23/6 8/22/6 2/21/6
f 12/28/7 11/27/7 10/26/7 9/25/7
f 16/32/8 15/31/8 14/30/8 13/29/8
f 10/36/9 16/35/9 13/34/9 9/33/9
f 14/40/10 15/39/10 11/38/10 12/37/10
f 13/44/11 14/43/11 12/42/11 9/41/11
f 11/48/12 15/47/12 16/46/12 10/45/12
f 20/52/13 19/51/13 18/50/13 17/49/13
f 24/56/14 23/55/14 22/54/14 21/53/14
f 18/60/15 24/59/15 21/58/15 17/57/15
f 22/64/16 23/63/16 19/62/16 20/61/16
f 21/68/17 22/67/17 20/66/17 17/65/17
f 19/72/18 23/71/18 24/70/18 18/69/18
f 28/76/19 27/75/19 26/74/19 25/73/19
f 32/80/20 31/79/20 30/78/20 29/77/20
f 26/84/21 32/83/21 29/82/21 25/81/21
f 30/88/22 31/87/22 27/86/22 28/85/22
f 29/92/23 30/91/23 28/90/23 25/89/23
f 27/96/24 31/95/24 32/94/24 26/93/24
f 36/100/25 35/99/25 34/98/25 33/97/25
f 40/104/26 39/103/26 38/102/26 37/101/26
f 34/108/27 40/107/27 37/106/27 33/105/27
f 38/112/28 39/111/28 35/110/28 36/109/28
f 37/116/29 38/115/29 36/114/29 33/113/29
f 35/120/30 39/119/30 40/118/30 34/117/30
usemtl mat23
f 44/124/31 43/123/31 42/122/31 41/121/31
f 48/128/32 47/127/32 46/126/32 45/125/32
f 42/132/33 48/131/33 45/130/33 41/129/33
f 46/136/34 47/135/34 43/134/34 44/133/34
f 45/140/35 46/139/35 44/138/35 41/137/35
f 43/144/36 47/143/36 48/142/36 42/141/36
